<?xml version="1.0" standalone="no"?>
<!DOCTYPE svg PUBLIC "-//W3C//DTD SVG 20010904//EN"
 "http://www.w3.org/TR/2001/REC-SVG-20010904/DTD/svg10.dtd">
<svg version="1.0" xmlns="http://www.w3.org/2000/svg"
 width="512.000000pt" height="512.000000pt" viewBox="0 0 512.000000 512.000000"
 preserveAspectRatio="xMidYMid meet">
<metadata>
Created by potrace 1.11, written by Peter Selinger 2001-2013
</metadata>
<g transform="translate(0.000000,512.000000) scale(0.100000,-0.100000)"
fill="#000000" stroke="none">
<path d="M1550 4890 c-407 -437 -337 -376 -560 -479 -191 -87 -668 -325 -882
-439 -96 -51 -108 -60 -108 -84 l0 -27 48 22 c26 12 90 45 142 73 389 210 796
411 808 400 2 -2 -32 -28 -75 -57 -99 -66 -97 -63 -84 -86 7 -14 18 -19 39
-15 35 5 57 -18 48 -53 -8 -33 -39 -49 -66 -35 -17 9 -25 6 -47 -21 -54 -63
-163 -88 -236 -53 -34 16 -34 16 -90 -21 -32 -21 -57 -39 -57 -40 0 -1 37 4
83 11 425 68 713 89 1222 88 364 -1 444 -4 600 -22 471 -57 840 -138 1170
-259 83 -30 233 -84 335 -120 102 -36 210 -77 240 -90 30 -14 114 -46 185 -73
175 -64 455 -182 650 -273 88 -41 171 -77 183 -81 l22 -7 0 163 0 164 -46 44
c-67 66 -310 332 -398 435 -77 91 -96 130 -96 197 0 21 -18 243 -40 494 -22
251 -40 460 -40 465 0 5 -593 9 -1368 9 l-1367 0 -215 -230z m656 -72 c11 -13
28 -36 38 -51 24 -39 45 -45 234 -67 91 -11 167 -21 169 -24 2 -2 -13 -10 -34
-16 -21 -7 -84 -32 -140 -56 -57 -24 -106 -44 -111 -44 -11 0 -232 257 -232
270 0 19 56 10 76 -12z m-346 -24 c-47 -19 -99 -41 -116 -50 -30 -15 -32 -15
-90 23 -52 34 -56 38 -34 41 101 11 214 19 265 20 l60 1 -85 -35z m248 -46
c23 -35 71 -98 107 -140 36 -43 65 -80 65 -83 0 -3 -16 -5 -35 -5 -19 0 -35 4
-35 9 0 6 -38 42 -84 80 -79 67 -87 71 -152 80 -37 6 -89 8 -114 5 -44 -5 -43
-5 40 35 47 23 101 50 120 60 19 10 38 19 41 20 3 1 24 -27 47 -61z m-515 -36
c23 -20 33 -34 25 -36 -7 -2 -55 -11 -106 -20 -50 -9 -100 -19 -110 -23 -9 -3
14 26 52 65 60 61 72 70 85 59 9 -7 33 -27 54 -45z m1722 -11 c104 -21 111
-12 -88 -100 -75 -33 -164 -74 -196 -91 l-60 -30 -91 92 -91 91 38 -6 c21 -3
78 -11 126 -18 l89 -13 86 45 c48 26 89 47 92 47 3 1 45 -7 95 -17z m435 -87
c96 -20 186 -39 200 -42 42 -9 55 -42 16 -42 -13 0 -79 -9 -146 -21 l-123 -21
-78 78 c-44 43 -79 82 -79 85 0 4 8 5 18 3 9 -2 96 -20 192 -40z m-198 -77
c27 -32 48 -60 46 -63 -3 -2 -54 2 -114 10 -60 8 -147 18 -194 22 l-85 7 130
62 130 63 18 -22 c10 -11 41 -47 69 -79z m-746 6 c63 -70 74 -85 53 -80 -27 7
-223 32 -348 45 l-74 7 139 56 c76 31 142 57 145 58 3 0 41 -38 85 -86z m1290
-191 c34 -59 60 -109 58 -111 -2 -2 -32 0 -68 4 -52 5 -66 10 -71 26 -18 54
-122 146 -170 149 -32 2 -1 11 88 25 45 7 87 13 92 14 6 0 38 -48 71 -107z
m194 38 c110 -29 157 -50 115 -50 -11 0 -51 -12 -90 -25 -38 -14 -73 -25 -76
-25 -4 0 -25 29 -48 65 -22 36 -35 65 -28 65 7 0 64 -14 127 -30z m225 -147
c3 -21 8 -52 11 -70 l5 -32 -70 24 c-38 12 -94 29 -125 36 -31 7 -56 15 -56
19 0 6 189 58 217 59 7 1 15 -16 18 -36z"/>
<path d="M1255 3920 c-234 -14 -484 -39 -674 -66 -164 -23 -461 -81 -543 -106
l-38 -11 0 -272 0 -271 107 -48 c59 -26 135 -57 170 -68 37 -12 62 -26 59 -32
-18 -42 -81 -244 -101 -324 -96 -378 -108 -800 -28 -984 9 -21 19 -38 23 -38
4 0 10 64 13 143 2 78 11 178 18 222 l14 80 6 -150 c13 -287 96 -532 228 -672
42 -45 69 -57 56 -25 -35 81 -76 324 -74 435 0 34 5 23 24 -59 22 -97 75 -245
96 -270 14 -17 -6 -458 -26 -592 -22 -141 -56 -254 -121 -401 -30 -68 -53
-125 -51 -127 9 -9 113 51 154 89 l48 45 2 -117 c1 -83 8 -141 25 -206 l23
-90 149 -3 148 -3 -6 48 -5 48 21 -48 20 -47 354 0 353 0 -123 123 c-67 67
-136 145 -153 173 l-31 51 32 38 32 38 46 -59 c25 -32 94 -106 153 -164 l107
-104 44 69 c25 39 58 96 74 127 16 31 34 59 39 63 6 3 19 26 31 51 18 43 22
45 50 40 16 -3 44 -9 60 -12 l30 -6 -65 -126 c-36 -70 -94 -165 -129 -212
l-64 -85 136 -3 c144 -3 152 -1 152 47 0 21 3 23 33 17 17 -3 54 -20 81 -37
72 -44 106 -21 49 33 -34 32 -73 48 -119 48 l-34 0 5 83 c3 45 8 105 11 134
l5 51 32 -13 c68 -28 203 -48 330 -49 l127 -1 0 -112 c0 -91 -3 -113 -14 -113
-16 0 -76 -47 -76 -60 0 -17 40 -21 69 -6 28 15 30 15 36 -4 6 -19 15 -20 161
-20 85 0 154 2 154 4 0 3 -26 41 -58 86 -32 45 -78 118 -102 163 -23 45 -58
106 -76 135 -19 29 -34 54 -34 57 0 5 81 28 84 23 2 -2 15 -21 31 -43 16 -22
36 -46 44 -53 8 -7 51 -65 96 -129 44 -64 84 -116 88 -115 5 0 64 53 133 117
68 64 124 111 125 103 0 -7 4 -35 9 -63 8 -49 7 -52 -33 -104 -23 -29 -73 -82
-111 -117 l-70 -64 518 0 519 0 -48 43 c-27 23 -64 53 -83 66 l-35 24 7 75 c3
41 6 104 6 139 0 73 5 80 101 133 119 66 284 242 340 363 l19 42 -5 -62 c-12
-129 -56 -247 -126 -341 l-40 -53 28 7 c115 25 262 152 322 278 41 86 70 199
79 317 l8 94 13 -105 c15 -111 9 -388 -9 -465 -5 -22 -8 -41 -6 -42 7 -7 59
54 77 88 24 47 55 171 71 279 7 53 13 228 14 460 1 295 5 391 17 450 22 106
37 250 44 434 l6 159 94 -5 93 -5 0 304 0 303 -57 26 c-273 121 -709 311 -758
329 -33 12 -150 59 -260 103 -670 270 -1191 402 -1855 467 -187 19 -725 27
-935 15z m496 -296 c-6 -59 -11 -215 -11 -347 l0 -240 -42 6 c-41 6 -208 55
-208 61 0 2 25 57 56 122 60 128 204 484 204 505 0 7 3 10 6 7 3 -4 1 -55 -5
-114z m-1080 -33 c-12 -22 -21 -42 -21 -44 0 -2 21 -3 48 -3 41 1 47 -2 50
-21 4 -24 16 -30 27 -13 10 17 43 11 50 -9 12 -40 -35 -116 -66 -106 -12 4
-28 -4 -46 -24 -30 -33 -70 -47 -92 -32 -8 5 -17 26 -21 47 l-7 39 -67 -140
c-69 -144 -105 -209 -112 -202 -4 3 44 124 95 242 28 62 173 316 178 311 3 -2
-5 -22 -16 -45z m1234 24 c14 -13 25 -33 25 -45 0 -21 14 -27 25 -10 10 16 41
11 59 -9 12 -13 16 -32 14 -57 -2 -32 -8 -40 -31 -48 -19 -7 -33 -7 -45 1 -15
9 -19 4 -32 -35 -17 -52 -36 -68 -71 -59 -44 11 -62 67 -53 165 6 80 8 85 38
103 40 24 42 24 71 -6z m1311 -150 c22 -34 30 -110 14 -130 -18 -22 -73 -19
-95 5 -27 30 -27 116 -1 136 30 22 63 17 82 -11z m554 -140 c16 -19 9 -49 -12
-53 -20 -4 -40 30 -32 52 8 20 28 21 44 1z m-976 -237 c7 -46 6 -48 -16 -48
-23 0 -23 1 -14 65 11 70 18 66 30 -17z m-1130 -76 l81 -7 11 -122 c22 -234
61 -396 129 -538 63 -133 82 -151 190 -181 74 -21 105 -25 177 -21 49 3 94 10
102 17 8 6 23 33 32 58 10 26 29 61 44 77 137 152 240 363 295 605 9 41 19 81
21 88 2 6 19 12 37 12 32 0 35 -3 46 -43 31 -126 145 -357 208 -424 26 -28 27
-32 10 -26 -43 16 -209 9 -275 -11 -65 -20 -131 -69 -173 -128 l-22 -30 22
-21 21 -21 27 22 c108 87 162 106 283 100 101 -5 150 -27 217 -95 96 -99 190
-307 181 -402 -5 -55 -94 -278 -138 -347 -17 -28 -26 -50 -20 -52 20 -7 118
50 175 100 l55 50 0 -54 c0 -29 -18 -165 -40 -303 -22 -137 -40 -260 -40 -272
0 -28 -29 -50 -138 -106 -182 -94 -363 -149 -620 -188 -115 -18 -166 -20 -317
-16 -416 13 -773 103 -1018 257 -71 44 -87 60 -115 111 -47 84 -62 167 -62
343 0 129 -4 165 -30 275 -28 123 -56 329 -48 367 2 11 15 -13 32 -61 52 -148
179 -365 201 -343 3 3 -5 42 -19 86 -59 187 -57 252 9 390 43 91 103 156 180
195 54 27 69 31 150 31 78 0 97 -3 140 -26 28 -14 59 -35 69 -47 20 -22 51
-27 76 -11 13 8 12 14 -4 45 -26 48 -78 92 -146 124 -46 22 -69 26 -140 25
-144 -1 -249 -55 -350 -178 l-45 -56 -3 125 -3 124 49 68 c61 84 183 279 247
394 l47 86 60 -19 c34 -10 97 -22 142 -26z m1448 -264 c73 -156 206 -326 289
-369 41 -20 40 -9 12 -162 -8 -48 -19 -90 -24 -93 -5 -3 -9 1 -9 8 0 25 -58
134 -103 194 -26 34 -72 80 -102 104 -38 29 -55 49 -55 65 0 12 -7 38 -15 57
-19 46 -52 216 -59 303 l-6 70 19 -50 c10 -27 34 -84 53 -127z m1034 -1048
c26 -100 12 -188 -46 -284 -35 -58 -56 -73 -47 -33 3 12 11 92 17 177 6 85 14
184 17 220 l6 65 19 -45 c11 -25 26 -70 34 -100z m-1336 -1004 c0 -20 -9 -26
-72 -45 -105 -30 -227 -44 -337 -38 -107 6 -171 21 -171 41 0 10 28 14 120 14
103 1 407 35 419 48 2 2 13 4 23 4 12 0 18 -7 18 -24z m-1481 -136 c13 -19 35
-47 49 -62 l25 -27 -35 -48 -34 -48 22 -55 c22 -51 22 -56 6 -68 -48 -38 -49
-37 -66 56 -15 85 -38 240 -50 352 l-6 55 33 -60 c18 -33 43 -76 56 -95z
m1056 -11 c44 -6 106 -7 138 -4 l57 7 0 -34 c0 -18 3 -57 7 -87 l6 -54 -139 7
c-208 10 -194 2 -194 103 0 84 0 85 23 79 12 -3 58 -11 102 -17z m439 -500
c24 -35 20 -39 -34 -39 -57 0 -53 -7 -70 123 -16 126 -13 129 39 30 27 -50 56
-102 65 -114z m-776 43 l-11 -82 -43 0 -43 0 52 84 c29 46 53 82 54 81 2 -1
-2 -38 -9 -83z"/>
<path d="M2762 2640 c-46 -21 -53 -47 -11 -42 13 1 44 4 68 6 55 5 76 31 36
46 -35 13 -43 13 -93 -10z"/>
<path d="M1538 2618 c-52 -18 -33 -36 42 -40 82 -4 119 13 86 38 -22 16 -88
17 -128 2z"/>
<path d="M2826 2390 c-37 -12 -85 -46 -115 -83 -23 -28 -23 -29 -4 -18 94 50
177 -60 105 -140 -39 -44 -95 -44 -133 -1 l-28 31 -7 -32 c-11 -49 -7 -260 6
-324 22 -106 78 -184 153 -212 42 -16 35 7 -18 59 -53 52 -57 78 -15 114 87
73 237 49 265 -42 6 -20 -1 -32 -44 -71 -74 -69 -67 -94 14 -47 86 51 133 163
142 337 12 222 -44 365 -162 420 -42 19 -110 23 -159 9z"/>
<path d="M1444 2330 c-23 -12 -51 -31 -63 -44 l-22 -24 43 5 c56 6 81 -17 76
-73 -5 -65 -91 -102 -138 -59 -16 15 -18 15 -24 0 -10 -27 -7 -204 5 -274 20
-115 89 -228 148 -244 32 -8 26 14 -14 53 -41 39 -44 68 -12 97 34 32 62 43
106 43 48 0 89 -14 119 -42 34 -33 28 -63 -25 -113 -50 -49 -50 -54 3 -29 39
19 76 74 102 155 13 42 17 87 16 204 0 132 -3 157 -23 208 -27 69 -73 125
-118 143 -48 21 -131 17 -179 -6z"/>
<path d="M2090 1310 c-41 -4 -90 -11 -109 -15 l-33 -7 4 -87 c6 -102 36 -188
84 -240 18 -20 35 -33 38 -30 3 3 -7 30 -23 60 -31 57 -66 166 -75 236 l-6 41
87 7 c48 4 150 5 227 3 132 -5 141 -7 159 -29 17 -21 19 -35 14 -109 -3 -51
-13 -107 -26 -140 -26 -68 -26 -78 -2 -56 39 36 65 115 65 201 -1 105 -17 139
-76 153 -61 15 -240 22 -328 12z"/>
<path d="M2320 484 c0 -16 4 -35 9 -43 10 -16 87 -26 135 -17 33 6 36 10 36
41 l0 35 -67 0 c-38 0 -78 3 -90 6 -20 6 -23 3 -23 -22z"/>
</g>
</svg>
